<?xml version="1.0" encoding="UTF-8" standalone="no"?>
<!-- Created with Inkscape (http://www.inkscape.org/) -->

<svg
   xmlns:dc="http://purl.org/dc/elements/1.1/"
   xmlns:cc="http://creativecommons.org/ns#"
   xmlns:rdf="http://www.w3.org/1999/02/22-rdf-syntax-ns#"
   xmlns:svg="http://www.w3.org/2000/svg"
   xmlns="http://www.w3.org/2000/svg"
   xmlns:sodipodi="http://sodipodi.sourceforge.net/DTD/sodipodi-0.dtd"
   xmlns:inkscape="http://www.inkscape.org/namespaces/inkscape"
   id="svg3850"
   version="1.1"
   inkscape:version="0.48.4 r9939"
   width="644"
   height="69"
   sodipodi:docname="logo.png">
   <metadata
      id="metadata3856">
      <rdf:RDF>
         <cc:Work
            rdf:about="">
            <dc:format>image/svg+xml</dc:format>
            <dc:type
               rdf:resource="http://purl.org/dc/dcmitype/StillImage" />
            <dc:title></dc:title>
         </cc:Work>
      </rdf:RDF>
   </metadata>
   <defs
      id="defs3854" />
   <sodipodi:namedview
      pagecolor="#ffffff"
      bordercolor="#666666"
      borderopacity="1"
      objecttolerance="10"
      gridtolerance="10"
      guidetolerance="10"
      inkscape:pageopacity="0"
      inkscape:pageshadow="2"
      inkscape:window-width="1366"
      inkscape:window-height="705"
      id="namedview3852"
      showgrid="false"
      inkscape:zoom="1"
      inkscape:cx="151.91813"
      inkscape:cy="83.483813"
      inkscape:window-x="1432"
      inkscape:window-y="222"
      inkscape:window-maximized="1"
      inkscape:current-layer="svg3850" />
   <g
      id="g3860">
      <path
         style="fill:#fdfefd"
         d="M 0,34.5 0,0 322,0 644,0 644,34.5 644,69 322,69 0,69 0,34.5 z"
         id="path3876"
         inkscape:connector-curvature="0" />
      <path
         style="fill:#cbe4a9"
         d="M 24.734467,63.966167 C 15.414941,61.636324 7.0967487,54.892605 2.8115223,46.192813 -0.55132473,39.365619 -0.49759382,26.526928 2.9229112,19.577089 9.7042921,5.7985664 25.560672,-1.5952961 39.584729,2.4816079 45.449833,4.1866399 54,9.2803871 54,11.069481 c 0,0.53537 -1.077955,2.651251 -2.395456,4.701959 -1.317501,2.050708 -2.940593,5.456035 -3.60687,7.567393 L 46.78626,27.177667 44.872471,24.030692 C 42.647695,20.372342 36.049055,17.046363 31,17.038412 c -4.743211,-0.0075 -10.891131,3.708617 -13.145899,7.945986 -2.374106,4.461641 -2.373557,11.578224 0.0012,16.006279 C 19.98534,44.962299 26.784084,49 31.341559,49 c 4.423324,0 11.241917,-3.652342 13.511939,-7.237596 l 1.973816,-3.117428 1.087948,4.04033 c 0.598371,2.222181 2.212225,5.697046 3.586343,7.721921 C 52.875722,52.432102 54,54.457634 54,54.908408 c 0,1.140278 -6.751152,5.68762 -11.176221,7.527914 -4.792092,1.992932 -13.343914,2.716175 -18.089312,1.529845 z m 46.346901,-0.49961 C 56.783584,59.477262 47.823529,47.689117 47.823529,32.867774 c 0,-22.818914 23.16115,-37.812976 44.337455,-28.7031746 6.040117,2.5983883 13.935796,10.9034746 16.332636,17.1795286 l 1.84777,4.838303 1.85944,-4.984667 c 7.62622,-20.44379225 34.46299,-26.8086463 51.14011,-12.1288558 2.55482,2.2488358 5.77614,6.5057218 7.35291,9.7166528 2.74281,5.585444 2.81349,6.160265 3.13121,25.464439 L 174.15012,64 166.07506,64 158,64 158,46.815724 C 158,31.675008 157.76215,29.140113 155.99991,25.499815 150.56766,14.278278 132.927,14.204686 127.62329,25.381435 126.31665,28.134972 126,32.2352 126,46.401129 L 126,64 l -8,0 -8,0 -0.01,-11.25 -0.01,-11.25 -2.37293,5 C 101.14005,60.127645 85.369462,67.453149 71.081368,63.466557 z M 87.864236,46.268013 c 9.628562,-7.130409 9.54182,-19.467073 -0.187566,-26.676065 -4.391078,-3.253571 -13.22362,-2.937621 -17.915234,0.640847 -9.480632,7.231231 -8.110272,21.899435 2.509224,26.858491 5.112187,2.387272 11.730014,2.03788 15.593576,-0.823273 z M 175.17494,44.25 c 0.31695,-19.257422 0.39439,-19.891178 3.10484,-25.410544 3.0537,-6.218318 8.30846,-11.5147064 14.92516,-15.0433807 3.61008,-1.9252501 5.81013,-2.2905486 13.79506,-2.2905486 7.98493,0 10.18498,0.3652985 13.79506,2.2905486 6.73255,3.5904553 11.95441,8.9182077 15.03797,15.3429047 l 2.83603,5.908969 1.26239,-4.213488 C 241.85504,14.414096 252.0541,4.6553525 258.99469,2.594217 279.34152,-3.4481418 298.93053,9.5068359 300.72711,30.193492 301.75737,42.056392 307.09845,48 316.72849,48 c 3.67619,0 5.96367,-0.659113 8.67637,-2.5 3.21109,-2.179103 4.76931,-2.5 12.13955,-2.5 C 342.7815,43 346,43.399539 346,44.04966 346,48.936968 334.66894,59.834214 327.01758,62.305327 311.85924,67.200927 296.04086,60.774096 289.1098,46.903816 287.39941,43.481023 286,40.07743 286,39.340278 286,38.27563 282.70234,38 269.96482,38 c -14.96432,0 -15.97219,0.11687 -15.09183,1.75 2.7136,5.033913 8.44145,8.25 14.69323,8.25 5.31728,0 10.24916,-2.543088 12.96235,-6.683953 l 1.73552,-2.648732 1.73871,4.580469 c 0.9563,2.519258 2.74474,5.993293 3.97432,7.720078 2.14383,3.010743 2.16315,3.219662 0.47055,5.089965 -0.97078,1.072695 -4.28114,3.186014 -7.35636,4.696264 -4.77734,2.346166 -6.82872,2.743867 -14.09131,2.73188 -7.2394,-0.01195 -9.24748,-0.406517 -13.54015,-2.660505 -5.6317,-2.957093 -12.87888,-10.271209 -14.9922,-15.13068 -1.29998,-2.989258 -1.39188,-2.503212 -1.42851,7.555214 L 239,64 l -8,0 -8,0 -0.0164,-17.75 C 222.9683,29.727296 222.81271,28.230624 220.7336,24.604101 214.87609,14.387068 199.02706,14.490172 193.2422,24.782943 191.15514,28.496274 191,29.991059 191,46.386155 L 191,64 l -8.07506,0 -8.07506,0 0.32506,-19.75 z M 280.4956,20.992888 c -2.80368,-4.53645 -16.61387,-5.319066 -20.75666,-1.176269 L 257.55556,22 l 11.78123,0 c 7.65498,0 11.56324,-0.352731 11.15881,-1.007112 z m 85.86095,40.985393 C 359.60409,59.302002 353.13281,53.493301 349.50866,46.855407 347.01787,42.293338 346.52375,40.129725 346.17308,32.25 L 345.76144,23 337.38072,23 C 332.77132,23 329,22.586702 329,22.081559 c 0,-0.505142 -1.51562,-1.855142 -3.36803,-3 -6.93854,-4.288251 -18.95538,-1.85537 -21.81288,4.416144 -1.56183,3.427847 -2.30795,3.151709 -3.65782,-1.353756 -0.63541,-2.120829 -2.33504,-5.594495 -3.77694,-7.719257 l -2.62164,-3.863205 3.34728,-2.7944329 c 7.37716,-6.1587296 20.67145,-8.5195549 29.81296,-5.2942427 6.05373,2.1358808 12.70769,7.2540679 16.11149,12.3928756 L 346,19.342889 346,10.171445 346,1 l 8,0 8,0 0,2.9701231 0,2.970123 12.75,0.279877 L 387.5,7.5 387.79381,14.75 388.08762,22 375.04381,22 362,22 l 0,7.265602 c 0,8.852953 2.04445,13.280558 7.6041,16.467948 6.11179,3.503938 15.47641,2.493695 19.26834,-2.078646 C 389.94564,42.360832 392.03517,42 398.45578,42 c 4.51599,0 8.49161,0.28072 8.83471,0.623822 1.09466,1.094657 -2.94191,7.734416 -7.35187,12.093121 -6.1041,6.033147 -11.92403,8.519569 -20.93862,8.945518 -5.81356,0.274696 -8.65655,-0.104005 -12.64345,-1.68418 z m 64.14259,0.633888 C 421.91451,59.921376 412.24251,50.798734 410.46479,43.715741 L 409.78318,41 399.89159,41 390,41 l 0,-9.5 0,-9.5 9.80755,0 9.80755,0 1.75079,-3.968252 C 413.75018,12.627636 420.49316,5.9161487 426.51582,2.9525717 430.62123,0.93241754 432.99865,0.5 440,0.5 c 7.28969,0 9.31367,0.39956472 14.21444,2.8061504 6.66901,3.2749065 12.95343,9.9480876 15.39893,16.3515206 l 1.7156,4.492237 2.38646,-5.021174 c 3.15744,-6.643333 11.78106,-14.4686137 18.34864,-16.6500157 6.98492,-2.32001551 17.84928,-1.70978374 24.1308,1.3553831 6.11716,2.9849639 12.54365,9.4570986 15.32814,15.4370116 l 2.22163,4.771112 2.68383,-5.485551 C 541.58266,8.0218941 552.99897,1 564.97241,1 568.21598,1 572.0241,1.4388621 573.4349,1.9752492 575.9115,2.91685 576,3.2446212 576,11.475249 576,16.163862 575.82644,20 575.61431,20 c -0.21213,0 -1.67463,-0.672228 -3.25,-1.493839 C 567.9463,16.20201 559.9311,16.56633 555.99949,19.25 c -9.1943,6.275935 -9.2597,20.103492 -0.12444,26.311065 4.83978,3.288715 12.45719,3.372706 17.13512,0.188935 5.31996,-3.620732 6.90712,-6.608318 7.96295,-14.988986 1.5755,-12.505466 7.26902,-21.1425241 17.52688,-26.5882044 4.34286,-2.3055335 6.18285,-2.6543942 14,-2.6543942 7.83762,0 9.6617,0.3478697 14.12335,2.6934593 19.1369,10.0606983 23.10103,35.1941853 7.94187,50.3533423 -7.92649,7.92649 -21.40528,11.727285 -30.00012,8.459534 C 602.08767,62.082834 602,61.757265 602,53.499071 l 0,-8.550431 2.95034,1.52568 c 4.19887,2.171318 11.85072,1.94435 15.8088,-0.468918 9.76779,-5.955497 9.76779,-21.055307 0,-27.010804 -4.32904,-2.639447 -12.15917,-2.657815 -16.45481,-0.0386 -4.70511,2.868892 -6.44899,6.217088 -7.87423,15.118304 -1.65967,10.365302 -4.3592,15.746276 -10.89747,21.721884 -9.19067,8.399753 -22.29423,10.49929 -33.79019,5.414082 -5.37795,-2.378923 -12.77053,-9.384623 -14.82116,-14.045518 -1.37769,-3.131373 -1.43661,-2.930412 -1.92128,6.5524 l -0.5,9.78285 -8,0 -8,0 0.32575,-16.5 c 0.309,-15.651536 0.20616,-16.730984 -2,-20.991929 C 510.71293,14.201853 495.22276,13.651388 488.55407,25.003398 486.69343,28.170724 486.5,30.14798 486.5,46 l 0,17.5 -8,0 -8,0 -0.28826,-9.305727 -0.28827,-9.305727 -3.21173,4.772467 c -7.90183,11.74169 -22.92716,17.115382 -36.2126,12.951156 z M 447.99596,45.882114 C 452.73441,43.218954 456,37.55516 456,32 456,17.106447 437.37609,10.445304 427.7431,21.893462 c -11.22897,13.344874 4.99647,32.563222 20.25286,23.988652 z m -51.60809,-26.43925 c -7.73332,-3.874267 -7.52529,-14.2516455 0.36071,-17.9938004 3.02252,-1.43427848 3.91921,-1.46910376 7.10524,-0.2759507 5.0803,1.9025481 7.78747,7.3537169 6.13645,12.3563581 -1.9393,5.876154 -8.22354,8.608111 -13.6024,5.913393 z m 6.988,-7.6741 c 0.83869,-1.331803 0.70827,-2.1131979 -0.56528,-3.3867446 -2.99571,-2.9957064 -7.46512,0.9194682 -4.76443,4.1736046 1.55489,1.873529 3.86955,1.531801 5.32971,-0.78686 z"
         id="path3874"
         inkscape:connector-curvature="0" />
      <path
         style="fill:#a4d99c"
         d="M 23,63.123604 C 13.982432,60.158799 6.4226609,53.449096 2.7181887,45.122405 -0.51326732,37.858932 -0.26188145,27.09439 3.3096075,19.797387 6.8162654,12.632843 14.366814,5.7031907 21.105375,3.4650001 30.919261,0.20535041 44.173145,2.5602893 51.718533,8.9043202 l 2.218533,1.8653038 -3.814053,7.370474 -3.814053,7.370473 -1.761212,-2.334891 C 39.735809,16.796348 29.413036,14.928411 22.897883,19.258071 19.155341,21.745187 15,28.975276 15,33 c 0,3.620978 3.988143,11.010089 7.208529,13.355746 3.726473,2.714278 12.491994,3.3676 16.610171,1.238008 1.730212,-0.894728 4.146562,-2.980325 5.369665,-4.634661 l 2.223825,-3.007884 1.840426,4.685358 c 1.012234,2.576946 2.704384,5.898675 3.760334,7.381619 1.908754,2.680599 1.907032,2.708055 -0.296521,4.726187 C 47.062888,61.006335 40.782207,63.319783 33,63.638448 28.875,63.807357 24.375,63.575678 23,63.123604 z M 68.762601,62.545383 C 46.822741,54.139255 41.002189,26.585929 57.731593,10.326809 69.918266,-1.517281 91.532796,-0.54167742 102.56808,12.35057 c 1.84276,2.152852 4.34409,6.311551 5.55851,9.241552 l 2.20803,5.327275 1.65111,-4.877244 c 7.32766,-21.6453194 35.96625,-28.0901684 52.28922,-11.767203 2.16102,2.16102 5.12071,6.47071 6.57709,9.577088 C 173.4249,25.33982 173.5,26.038852 173.5,44.5 l 0,19 -7.75,0.292064 -7.75,0.292065 0,-17.640936 c 0,-20.137507 -0.72858,-22.911659 -7.12984,-27.147815 -7.10006,-4.698597 -17.10394,-2.890704 -22.26563,4.023823 -1.91383,2.563736 -2.14984,4.511985 -2.60453,21.5 L 125.5,63.5 l -7.75,0.292064 -7.75,0.292065 0,-11.701787 0,-11.701787 -3.04683,6.097249 c -3.30496,6.613815 -7.621099,10.977793 -14.230974,14.388716 -5.368605,2.770384 -18.374256,3.518853 -23.959595,1.378863 z m 17.925508,-15.20167 c 11.361167,-5.391227 11.361167,-23.296199 0,-28.687426 -16.818575,-7.980936 -32.048963,13.41392 -18.53261,26.033646 4.783793,4.466454 12.411066,5.558642 18.53261,2.65378 z M 175.15957,44.25 175.5,24.5 l 3.46934,-6.400126 c 13.30373,-24.542275 48.72513,-22.0085621 58.09184,4.155342 l 1.34437,3.755215 1.82736,-4.898667 C 246.32766,4.7734116 266.2392,-3.3101769 282.08648,4.1202554 292.8496,9.1668383 298.61933,17.372975 300.1665,29.834993 c 1.03818,8.36231 2.60518,12.053652 6.376,15.01978 6.18934,4.86853 13.31261,5.090011 19.90133,0.618783 C 329.56588,43.354873 331.23018,43 338.04441,43 342.41998,43 346,43.361899 346,43.804219 c 0,1.755851 -5.85964,9.900594 -9.0819,12.623601 -9.03016,7.631042 -22.65571,9.384625 -33.12071,4.262573 -7.12665,-3.48811 -14.09531,-11.060538 -16.30728,-17.720154 L 285.83927,38 l -16.01169,0 -16.01168,0 1.85882,3.25 c 2.79599,4.888552 10.05122,8.166637 16.08707,7.268517 3.83557,-0.570724 5.54785,-1.547877 8.98821,-5.129335 2.62017,-2.727631 4.25,-3.827056 4.25,-2.866903 0,1.924316 3.66621,9.33377 5.84077,11.804262 1.49335,1.696582 1.4317,1.968449 -0.86651,3.821001 -15.80877,12.743195 -39.67784,8.128727 -48.39036,-9.355023 L 239,41.607311 239,52.803656 239,64 l -8,0 -8,0 0,-18.131966 c 0,-16.535193 -0.18057,-18.424129 -2.05041,-21.449593 -4.76714,-7.7134 -15.3241,-10.08345 -22.81975,-5.123063 C 191.73125,23.529762 191,26.309795 191,46.401129 L 191,64 l -8.09043,0 -8.09043,0 0.34043,-19.75 z M 279.9842,20.483182 c -2.94154,-3.13113 -8.73128,-4.942237 -13.13774,-4.10966 C 262.9635,17.107188 257,20.505954 257,21.985302 257,22.618193 261.76904,23 269.67431,23 l 12.67432,0 -2.36443,-2.516818 z M 370.5,63.128704 C 360.48764,60.509592 351.53068,52.707033 348.14327,43.653376 346.61131,39.558838 346,35.653903 346,29.962487 L 346,22 l -8.44098,0 c -4.64254,0 -8.72308,-0.45643 -9.06785,-1.01429 C 327.34721,19.134751 320.12703,16 317.00772,16 312.54119,16 307.7846,18.278849 304.76787,21.864026 301.87881,25.297482 301,25.711813 301,23.640465 c 0,-0.747744 -1.42809,-4.128538 -3.17352,-7.512874 -3.10051,-6.01177 -3.12927,-6.1889197 -1.25,-7.6998784 C 297.63441,7.5771158 300.975,5.6706071 304,4.1910267 c 7.13445,-3.48958679 18.00092,-3.70497965 25.1224,-0.4979713 5.7291,2.5799755 12.40041,8.5051216 14.90015,13.2336046 L 345.91161,20.5 345.9558,10.75 346,1 l 7.975,0 7.975,0 -0.6,3 -0.6,3 13.125,0 13.125,0 0,7.5 0,7.5 -13.13151,0 -13.1315,0 0.47025,7.25 c 0.79748,12.294742 5.48441,17.820046 15.72736,18.540581 4.72412,0.332316 6.13898,-1.74e-4 9.35981,-2.199543 C 389.64006,43.306437 391.08884,43 398.54441,43 c 9.68292,0 10.08951,0.480535 5.58436,6.599962 -4.3128,5.858156 -8.09321,9.055988 -13.56757,11.476731 -5.28831,2.338476 -15.12119,3.344258 -20.0612,2.052011 z m 61,-0.463359 c -2.2,-0.731062 -5.36417,-2.040541 -7.03148,-2.909953 C 420.11729,57.486467 412.48869,48.993438 410.92989,44.68265 L 409.59822,41 399.79911,41 390,41 l 0,-9.5 0,-9.5 9.84813,0 9.84812,0 1.75279,-3.886987 c 2.38212,-5.282606 9.98173,-12.53047 16.05096,-15.3080512 3.89107,-1.7807473 6.77429,-2.28630467 13,-2.27948534 7.2775,0.007971 8.58703,0.33042475 14.5,3.57043424 7.10872,3.8952179 12.84606,10.3776003 15.02303,16.9738823 l 1.27829,3.873237 2.40818,-5.221515 c 3.01507,-6.537402 8.31879,-12.1130131 14.7905,-15.5487054 4.34286,-2.3055335 6.18285,-2.6543942 14,-2.6543942 7.83114,0 9.66334,0.3487723 14.1076,2.6854777 6.28797,3.3060974 13.97108,11.6578109 15.53908,16.8913529 1.37618,4.59328 2.38803,4.962691 3.16296,1.154754 1.63211,-8.020049 11.26974,-16.9090211 21.58418,-19.9075114 5.05823,-1.47046566 14.69005,-1.3357361 17.24155,0.2411739 C 574.61092,2.8775668 575,6.7289763 575,11.14235 c 0,6.029244 -0.31079,7.895438 -1.25,7.50596 -9.09833,-3.772946 -14.46046,-3.173148 -19.85449,2.220887 -6.53213,6.532133 -7.05622,15.221064 -1.32864,22.027901 3.18553,3.785787 10.25567,6.547866 14.63999,5.719377 C 575.73643,47.004672 580.26242,41.054272 581.36691,30 583.06236,13.030995 595.28693,1.6799103 612,1.5557272 c 15.31764,-0.1138146 26.80529,8.7159518 30.59744,23.5181398 1.87091,7.302889 1.29703,13.134902 -2.00997,20.426133 -3.33069,7.343447 -6.92662,11.04934 -14.19219,14.626168 -6.73769,3.316957 -15.37983,4.356946 -21.64528,2.60478 -2.71981,-0.760611 -2.75,-0.86096 -2.75,-9.142201 l 0,-8.373149 3.71144,1.892201 c 6.74364,3.438102 13.46871,1.867857 19.00486,-4.437463 5.5527,-6.324178 5.53514,-14.036499 -0.0465,-20.393571 -5.60287,-6.38132 -11.96216,-7.765946 -19.31642,-4.205813 -5.69108,2.755005 -8.33419,7.284476 -9.45377,16.20083 C 593.6392,52.274226 581.96121,63.277583 565,63.386394 c -6.04081,0.03875 -8.57007,-0.453858 -13,-2.53194 -6.5747,-3.084199 -12.1382,-8.472801 -15.23348,-14.754598 L 534.5,41.5 534.21725,52.75 533.9345,64 526.46725,64 519,64 519,46.967881 c 0,-18.913008 -0.6538,-21.815897 -5.90949,-26.238272 -4.29839,-3.616849 -9.63296,-4.970843 -14.39937,-3.654773 -5.11015,1.410979 -10.4278,6.316467 -11.66127,10.75743 C 486.46957,29.84952 486.00864,38.8125 486.00558,47.75 L 486,64 478.53383,64 471.06766,64 470.78383,53.25 470.5,42.5 468.73628,46.038803 C 463.68224,56.179434 453.65106,62.813759 442.25102,63.55537 438.13239,63.823301 433.9403,63.476258 431.5,62.665345 z M 447.65994,46.357081 C 452.98861,43.828458 456,38.64448 456,32 c 0,-9.561756 -6.44427,-16 -16.01497,-16 -12.16735,0 -19.87135,13.312921 -13.8765,23.979314 4.05544,7.215679 13.74372,10.082759 21.55141,6.377767 z M 393.92308,17.076923 C 391.75897,14.912821 391,13.205128 391,10.5 391,5.4192255 395.41923,1 400.5,1 c 5.08077,0 9.5,4.4192255 9.5,9.5 0,5.080774 -4.41923,9.5 -9.5,9.5 -2.70513,0 -4.41282,-0.758974 -6.57692,-2.923077 z M 403.5,10.5 c 0,-2.6636094 -0.33486,-3 -2.9863,-3 -2.0858,0 -3.09133,0.5453227 -3.33458,1.8084133 -0.62466,3.2436187 0.64153,4.8448507 3.56519,4.5085577 C 403.06908,13.549566 403.5,13.030878 403.5,10.5 z"
         id="path3872"
         inkscape:connector-curvature="0" />
      <path
         style="fill:#9ece5f"
         d="M 23,63.123604 C 13.398312,59.966752 5.3152695,52.358422 2.3331653,43.670521 -4.5402648,23.645841 8.6595009,3.5955264 29.620962,2.220625 38.285542,1.6522991 45.124956,3.6479694 50.423687,8.2906451 L 54.086554,11.5 51.689116,15 c -1.318592,1.925 -2.985027,5.136506 -3.703189,7.136681 l -1.305751,3.636681 -2.459204,-2.922598 C 40.81252,18.800048 36.898781,17 31.5,17 19.24461,17 11.636184,29.220791 17.185675,39.991929 c 3.149174,6.112307 7.72138,9.009088 14.212208,9.004333 5.737914,-0.0042 10.472439,-2.342523 13.213559,-6.526 l 1.720111,-2.625221 1.704982,4.491606 c 0.93774,2.470383 2.648033,5.816 3.800652,7.434704 l 2.095671,2.943098 -2.216429,2.029924 C 47.062888,61.006335 40.782207,63.319783 33,63.638448 28.875,63.807357 24.375,63.575678 23,63.123604 z M 68.653038,62.371815 C 61.636381,60.216452 52.964371,51.430834 50.025255,43.5 42.873585,24.20212 56.484726,3.3685098 77.021922,2.1781121 91.778218,1.3227928 102.71435,8.3665088 108.41777,22.399465 l 2.21061,5.439068 1.12307,-4.169267 c 3.64315,-13.524663 18.73878,-23.82735738 32.78762,-22.3773895 11.7207,1.2096834 23.19543,9.9013695 26.96186,20.4226225 1.95076,5.449298 3.19069,27.594355 2.05431,36.689653 L 172.85609,64 165.42804,64 158,64 158,45.647883 c 0,-17.381413 -0.11944,-18.531842 -2.25807,-21.75 -7.25369,-10.915145 -23.37439,-9.524989 -28.82881,2.486029 -1.58451,3.489187 -1.87254,6.67387 -1.89116,20.909898 L 125,64.087619 117.75,63.79381 110.5,63.5 l -0.54886,-12 c -0.30188,-6.6 -0.6436,-11.1 -0.75939,-10 -0.36389,3.457051 -5.95229,12.156923 -9.901405,15.414243 -7.991692,6.59173 -19.988241,8.728734 -30.637307,5.457572 z M 86.688109,47.343713 c 5.023479,-2.383798 8.700504,-8.392195 8.680035,-14.183505 -0.02124,-6.009701 -2.430778,-10.511512 -7.378736,-13.785915 -3.403883,-2.252583 -4.76458,-2.558604 -9.767552,-2.196722 -6.674669,0.482802 -10.071901,2.538208 -13.154173,7.958584 -7.766887,13.658575 7.212379,29.044623 21.620426,22.207558 z m 88.686151,15.189213 c -0.32825,-0.855402 -0.41351,-9.537747 -0.18948,-19.294101 0.36108,-15.724192 0.66294,-18.306685 2.65789,-22.738825 2.93738,-6.525932 10.18085,-13.8124206 16.56544,-16.6638095 7.4896,-3.34489444 18.16633,-3.22380962 25.68069,0.291245 7.03128,3.2890758 13.22097,9.6686105 16.08481,16.5781325 l 2.21621,5.347019 1.83523,-4.919745 c 2.54662,-6.826771 8.71577,-13.4767999 15.56104,-16.773991 7.64077,-3.68036193 18.16784,-3.8618686 25.9157,-0.4468361 10.60656,4.6750593 17.16218,14.4536371 18.76759,27.9943661 0.35255,2.973509 1.29069,6.662747 2.08476,8.198306 1.99543,3.858739 7.55248,7.876079 11.86212,8.575436 3.91044,0.634578 11.55972,-1.741328 13.62742,-4.232748 C 328.91709,43.394977 331.53106,43 337.62244,43 342.2301,43 346,43.361899 346,43.804219 c 0,0.442321 -1.2857,2.831557 -2.85711,5.309414 -6.00873,9.474787 -15.40401,14.395999 -27.19175,14.242936 C 303.73019,63.197881 293.46929,56.16685 288.36721,44.455352 L 285.55495,38 269.77748,38 C 260.73216,38 254,38.396313 254,38.928798 c 0,2.123229 6.82408,7.938212 10.66689,9.089545 6.36597,1.907292 11.09746,0.570549 15.97679,-4.513775 l 4.14368,-4.317764 0.62805,3.140235 c 0.34542,1.727129 1.74327,4.82545 3.10632,6.885158 1.36305,2.059707 2.47827,4.126129 2.47827,4.592049 0,1.603544 -4.53483,5.10252 -9.51246,7.339599 -14.12231,6.34695 -32.95782,-0.412873 -39.88518,-14.314282 L 239.07022,41.748219 238.78511,52.62411 238.5,63.5 l -7.5,0 -7.5,0 0.36362,-15 c 0.42139,-17.383352 -0.54849,-22.384872 -5.25313,-27.089507 -6.72218,-6.722182 -16.4988,-6.722182 -23.22098,0 -4.70464,4.704635 -5.67452,9.706155 -5.25313,27.089507 l 0.36362,15 -7.26446,0.294101 c -5.83545,0.236248 -7.38186,-0.01184 -7.86128,-1.261175 z m 103.91996,-42.50863 c -5.74371,-5.226455 -14.2656,-5.25069 -20.34049,-0.05784 l -3.45373,2.952266 13.5,0.01133 13.5,0.01133 -3.20578,-2.917077 z m 91.44025,42.887653 C 355.96339,59.431922 347.00559,47.698318 346.18105,30.75 l -0.42569,-8.75 -7.9444,0 c -7.00704,0 -8.34508,-0.305611 -11.34025,-2.590135 -6.63099,-5.057703 -15.87712,-4.127827 -21.39017,2.151191 C 301.68178,25.432024 301,25.727724 301,23.330857 c 0,-0.918029 -1.38184,-4.117632 -3.07076,-7.11023 l -3.07076,-5.441086 2.16915,-2.3089523 C 303.25105,1.8460615 319.60316,-0.62391348 329,3.6411843 334.95255,6.342968 339.70269,10.461739 343.1681,15.926124 L 346,20.391561 346,10.695781 346,1 l 7.5,0 7.5,0 0,3.5 0,3.5 13,0 13,0 0,7 0,7 -13.12849,0 -13.12848,0 0.45928,7.933768 c 0.38703,6.685772 0.88728,8.494907 3.18018,11.501051 5.59303,7.332848 15.18169,9.104671 22.62288,4.180328 C 390.44224,43.34073 392.00224,43 398.97856,43 c 4.41179,0 8.01976,0.3375 8.0177,0.75 -0.006,1.170455 -3.97476,7.494263 -6.35125,10.119648 -3.43184,3.791242 -9.20625,7.041486 -15.35555,8.643175 -6.31057,1.643696 -8.96358,1.716447 -14.55499,0.399126 z m 61.3469,-0.457946 c -2.98025,-0.824629 -6.90473,-2.417781 -8.72106,-3.540339 -4.56392,-2.820656 -11.03279,-10.391243 -12.38813,-14.497953 L 409.8449,41 399.92245,41 390,41 l 0,-9.5 0,-9.5 9.91079,0 9.9108,0 2.16773,-4.477928 c 2.90719,-6.005454 10.8259,-12.9541348 17.29044,-15.172393 7.22803,-2.48024141 16.81204,-2.22793587 23.42203,0.6166009 6.49593,2.7954477 14.30414,10.8639071 16.77522,17.3343431 l 1.83115,4.794797 2.84742,-5.932705 C 479.72357,7.5616238 489.36167,1.5843648 502.5,1.5843648 c 9.11905,0 14.64504,1.9700458 20.8789,7.4434552 4.16599,3.657781 9.59704,12.372009 9.61172,15.42218 0.0131,2.723729 1.51112,0.853096 2.96833,-3.706679 0.66031,-2.066173 3.40562,-6.169365 6.10069,-9.118204 C 548.47017,4.6109807 555.03305,1.6717448 564.5,1.5750328 574.94913,1.4682873 575,1.5138005 575,10.968615 575,15.385877 574.82644,19 574.61431,19 c -0.21213,0 -1.67463,-0.672228 -3.25,-1.493839 -11.25038,-5.867477 -25.67531,6.197727 -22.31773,18.666842 1.93336,7.179945 8.88315,12.858621 15.6713,12.805035 4.28389,-0.03382 10.73481,-3.400667 13.23015,-6.905048 1.43039,-2.008799 2.56105,-5.603347 3.10351,-9.866528 1.06975,-8.407186 2.49572,-12.573867 6.13553,-17.928002 5.72021,-8.4144024 18.16024,-14.10808374 28.22111,-12.9165233 6.49305,0.7690055 16.68554,5.7770932 20.18991,9.9203293 13.8968,16.430227 8.76908,40.70869 -10.45686,49.510617 -5.7553,2.634863 -14.81915,3.496327 -20.39123,1.938065 -2.71981,-0.760611 -2.75,-0.86096 -2.75,-9.142201 l 0,-8.373149 3.71144,1.892201 c 4.91435,2.505477 9.03768,2.387336 14.32854,-0.410538 C 624.97825,44.085838 629,37.713334 629,32.5 c 0,-5.213334 -4.02175,-11.585838 -8.96002,-14.197261 -5.4773,-2.896466 -9.41761,-2.910269 -15.05521,-0.05274 -5.62935,2.853346 -7.93758,6.882862 -9.05909,15.814603 -1.94292,15.473509 -9.67512,24.775787 -23.67612,28.483719 C 558.04169,66.311041 543.226,59.206825 536.45532,45.38476 L 534.06254,40.5 534.03127,52.25 534,64 l -7.5,0 -7.5,0 0,-17.662142 C 519,29.329266 518.908,28.518756 516.51413,24.433906 513.76564,19.743959 507.47419,16 502.34156,16 497.27357,16 490.8846,20.077646 488.30274,24.960023 486.155,29.021462 486,30.48191 486,46.657284 L 486,64 l -7.5,0 -7.5,0 -0.0442,-11.25 -0.0442,-11.25 -2.06173,4 c -2.99533,5.811291 -10.46741,13.091097 -15.75799,15.3525 -6.5469,2.798402 -14.49528,3.404258 -21.01052,1.601503 z m 16.04578,-16.019754 c 3.58637,-1.854585 6.61437,-5.839471 8.03156,-10.569648 1.53479,-5.122678 -0.24515,-11.151043 -4.5692,-15.475094 C 441.1434,9.9433998 424,17.157857 424,32 c 0,12.886284 12.57386,20.408688 24.12715,14.434249 z M 393.92308,17.076923 C 391.75897,14.912821 391,13.205128 391,10.5 391,5.4192255 395.41923,1 400.5,1 c 5.08077,0 9.5,4.4192255 9.5,9.5 0,5.080774 -4.41923,9.5 -9.5,9.5 -2.70513,0 -4.41282,-0.758974 -6.57692,-2.923077 z M 403.5,10.5 c 0,-2.6636094 -0.33486,-3 -2.9863,-3 -2.0858,0 -3.09133,0.5453227 -3.33458,1.8084133 -0.62466,3.2436187 0.64153,4.8448507 3.56519,4.5085577 C 403.06908,13.549566 403.5,13.030878 403.5,10.5 z"
         id="path3870"
         inkscape:connector-curvature="0" />
      <path
         style="fill:#68c675"
         d="M 22,62.450278 C 15.466218,60.402418 8.1879052,54.373842 4.6610438,48.088541 2.1407547,43.597075 1.5510247,41.276815 1.1922165,34.440627 0.81491266,27.25205 1.0743046,25.51745 3.2310695,20.806455 6.606631,13.433258 11.124128,8.5756218 17.511889,5.4503816 27.885781,0.37490943 40.679376,1.3631347 49.760374,7.9413755 l 4.132772,2.9937645 -3.446573,5.723602 c -1.895615,3.14798 -3.449538,6.650074 -3.453162,7.78243 -0.0058,1.79777 -0.245569,1.696347 -1.891297,-0.799875 C 39.175116,14.651292 26.990064,13.841075 19.66426,21.949864 13.58208,28.68211 13.544583,37.276385 19.5683,43.943919 26.346547,51.44663 36.636412,51.465491 43.392247,43.98759 45.584529,41.560996 47,40.599511 47,41.536957 c 0,1.855299 3.647638,9.296337 5.706699,11.641439 1.330718,1.51558 1.061022,1.977321 -2.780158,4.759857 C 42.050959,63.643296 31.331915,65.375146 22,62.450278 z M 69.204958,62.105772 C 47.138098,54.483761 41.190293,26.062296 58.351657,10.243502 69.089563,0.34564636 85.092462,-0.53530358 97.618544,8.081884 102.07536,11.147903 107.4303,18.688657 108.56746,23.5 c 1.17314,4.963525 1.59789,4.919417 3.38217,-0.351216 2.36703,-6.991996 6.48513,-12.585914 11.91143,-16.1801462 13.73636,-9.0985837 30.20455,-7.24222141 41.05295,4.6276562 2.68059,2.932987 5.6447,7.486179 6.58692,10.118205 1.95076,5.449298 3.19069,27.594355 2.05431,36.689653 L 172.85609,64 165.42804,64 158,64 158,45.647883 c 0,-17.381413 -0.11944,-18.531842 -2.25807,-21.75 -7.25369,-10.915145 -23.37439,-9.524989 -28.82881,2.486029 -1.58451,3.489187 -1.87254,6.67387 -1.89116,20.909898 L 125,64.087619 117.75,63.79381 110.5,63.5 110,51 c -0.36886,-9.221547 -0.70109,-11.556471 -1.2667,-8.902538 -0.42168,1.978604 -2.26584,5.706038 -4.09812,8.283187 -8.358,11.755704 -22.138489,16.316159 -35.430222,11.725123 z M 84.316196,48.551188 c 5.094803,-1.817035 7.583188,-4.177124 9.925628,-9.413882 3.799805,-8.494844 0.0458,-17.353147 -9.061173,-21.381594 -7.139894,-3.158315 -15.081499,-0.738784 -19.651973,5.987273 -5.276397,7.764916 -2.376777,19.79963 5.660257,23.492587 6.859368,3.151829 7.733146,3.239399 13.127261,1.315616 z m 91.058064,13.981738 c -0.32825,-0.855402 -0.41351,-9.537747 -0.18948,-19.294101 0.36108,-15.724192 0.66294,-18.306685 2.65789,-22.738825 6.43675,-14.3004492 22.92541,-22.3257086 37.29032,-18.1497171 10.25755,2.9819514 17.34102,9.3977921 21.47615,19.4519911 1.28887,3.133749 2.35407,4.982101 2.36712,4.107448 0.0131,-0.874652 1.4006,-4.345609 3.08342,-7.713237 8.76351,-17.53733915 32.5814,-22.0669145 47.40817,-9.0158662 6.09371,5.3638932 9.35125,12.0053812 10.55841,21.5265242 1.12743,8.892209 3.52692,13.111415 9.30266,16.357566 4.81999,2.708983 12.34406,2.292513 16.69474,-0.924081 C 328.41765,44.370676 330.31132,44 336.95951,44 342.00302,44 345,44.398762 345,45.069825 c 0,2.179292 -5.95383,9.626176 -9.86097,12.333825 -5.8527,4.055925 -10.72263,5.504097 -18.63903,5.542688 -7.96951,0.03885 -14.62315,-2.481534 -20.74815,-7.859352 C 292.0427,51.830303 287,43.024261 287,39.803656 287,38.138323 285.73461,38 270.5,38 c -9.41922,0 -16.5,0.396212 -16.5,0.923275 0,1.861991 5.49893,7.387245 8.67119,8.712699 6.9667,2.910872 14.3755,1.024482 19.55191,-4.978206 2.2674,-2.629332 2.7276,-2.836609 2.75,-1.238625 0.0148,1.055529 1.40606,4.362877 3.09169,7.349662 2.84511,5.041252 2.94884,5.558649 1.44713,7.218021 -0.88971,0.983126 -4.35611,3.016443 -7.70309,4.518481 -5.42449,2.434365 -6.96645,2.682594 -14.19713,2.285494 -12.57849,-0.690793 -21.16851,-6.318837 -26.19137,-17.160163 L 239.06965,40.556931 238.78482,52.028466 238.5,63.5 l -7.5,0 -7.5,0 0.36362,-15 c 0.42139,-17.383352 -0.54849,-22.384872 -5.25313,-27.089507 -6.72218,-6.722182 -16.4988,-6.722182 -23.22098,0 -4.70464,4.704635 -5.67452,9.706155 -5.25313,27.089507 l 0.36362,15 -7.26446,0.294101 c -5.83545,0.236248 -7.38186,-0.01184 -7.86128,-1.261175 z M 282,22.068094 c 0,-2.130648 -6.50265,-5.445233 -11.4948,-5.85922 -5.57263,-0.462126 -9.56205,0.986493 -12.91255,4.688747 L 255.69002,23 268.84501,23 C 276.30752,23 282,22.596742 282,22.068094 z m 88.73447,40.843855 C 355.96339,59.431922 347.00559,47.698318 346.18105,30.75 l -0.42569,-8.75 -8.25523,0 c -6.27253,0 -8.56738,-0.3761 -9.55485,-1.565937 C 325.76339,17.805046 321.31171,16 317.00982,16 c -4.73066,0 -11.46046,3.10499 -13.01157,6.003266 -1.4752,2.756432 -2.65946,2.497915 -3.45071,-0.753266 -0.3681,-1.5125 -1.80003,-4.47794 -3.18207,-6.589867 -2.29526,-3.507448 -2.37741,-3.989454 -0.94903,-5.5677994 2.45521,-2.7129807 10.04422,-6.127599 15.55458,-6.9986697 13.25864,-2.09590803 26.71407,4.6756972 32.47092,16.3413671 1.45206,2.942452 1.51343,2.655243 1.53529,-7.185031 L 346,1 l 7.5,0 7.5,0 0,3.5 0,3.5 13,0 13,0 0,7 0,7 -13.12849,0 -13.12848,0 0.45928,7.933768 c 0.38703,6.685772 0.88728,8.494907 3.18018,11.501051 5.59303,7.332848 15.18169,9.104671 22.62288,4.180328 C 390.44224,43.34073 392.00224,43 398.97856,43 c 4.41179,0 8.01976,0.3375 8.0177,0.75 -0.006,1.170455 -3.97476,7.494263 -6.35125,10.119648 -3.43184,3.791242 -9.20625,7.041486 -15.35555,8.643175 -6.31057,1.643696 -8.96358,1.716447 -14.55499,0.399126 z m 61.3469,-0.457946 c -2.98025,-0.824629 -6.90473,-2.417781 -8.72106,-3.540339 -4.56392,-2.820656 -11.03279,-10.391243 -12.38813,-14.497953 L 409.8449,41 399.92245,41 390,41 l 0,-9.5 0,-9.5 9.91079,0 9.9108,0 2.16773,-4.477928 c 2.90719,-6.005454 10.8259,-12.9541348 17.29044,-15.172393 7.22803,-2.48024141 16.81204,-2.22793587 23.42203,0.6166009 6.49593,2.7954477 14.30414,10.8639071 16.77522,17.3343431 l 1.83115,4.794797 2.84742,-5.932705 C 479.72357,7.5616238 489.36167,1.5843648 502.5,1.5843648 c 9.11905,0 14.64504,1.9700458 20.8789,7.4434552 4.04442,3.551047 9.59628,12.343587 9.61172,15.22218 0.005,0.9625 0.45938,1.75 1.00938,1.75 0.55,0 1.00422,-0.7875 1.00938,-1.75 0.0163,-3.03487 5.72732,-11.868777 10.08384,-15.5977935 5.16675,-4.4225487 12.59025,-6.9871629 20.02231,-6.917157 C 574.88757,1.8270968 575,1.9335382 575,11.093068 l 0,7.958292 -2.95034,-1.52568 c -6.81786,-3.525653 -16.41629,-0.950984 -20.72446,5.559101 -5.56204,8.404806 -3.27948,18.513549 5.31806,23.552046 3.67901,2.156041 5.32327,2.52476 9.47845,2.1255 9.06393,-0.870929 14.23453,-6.765547 15.33528,-17.482619 C 583.49424,11.444682 599.3224,-1.1628768 618,2.1722073 625.005,3.423024 630.73421,6.755092 635.826,12.539666 640.7486,18.132033 643,24.396143 643,32.5 c 0,9.228479 -2.41332,15.061527 -8.9259,21.574104 -6.50578,6.50579 -12.36134,8.932798 -21.50224,8.912241 C 601.98046,62.962527 602,62.97935 602,53.883369 602,49.547516 602.15586,46 602.34636,46 c 0.1905,0 1.80634,0.72833 3.59074,1.61851 4.5842,2.286898 12.01232,1.420185 16.38002,-1.91122 13.29902,-10.14366 5.11137,-31.059882 -11.53236,-29.46063 -8.9076,0.855907 -13.50521,6.035684 -14.84777,16.72782 -2.31924,18.47055 -12.65586,28.888685 -29.5849,29.818222 -7.1134,0.390582 -8.83325,0.133629 -13.54564,-2.023772 -7.54883,-3.455969 -12.21203,-7.891782 -15.75962,-14.991126 L 534,39.680555 534,51.840278 534,64 l -7.5,0 -7.5,0 0,-17.662142 C 519,29.329266 518.908,28.518756 516.51413,24.433906 513.76564,19.743959 507.47419,16 502.34156,16 497.27357,16 490.8846,20.077646 488.30274,24.960023 486.155,29.021462 486,30.48191 486,46.657284 L 486,64 l -7.5,0 -7.5,0 -0.0442,-11.25 -0.0442,-11.25 -2.06173,4 c -2.99533,5.811291 -10.46741,13.091097 -15.75799,15.3525 -6.5469,2.798402 -14.49528,3.404258 -21.01052,1.601503 z m 16.04578,-16.019754 c 3.58637,-1.854585 6.61437,-5.839471 8.03156,-10.569648 1.53479,-5.122678 -0.24515,-11.151043 -4.5692,-15.475094 C 441.1434,9.9433998 424,17.157857 424,32 c 0,12.886284 12.57386,20.408688 24.12715,14.434249 z M 396.11007,18.604493 c -2.65841,-1.473446 -5.02045,-5.152515 -5.07463,-7.904153 -0.11067,-5.6205503 6.1037,-10.48760135 11.79482,-9.2376214 8.04216,1.7663551 9.44251,13.2763874 2.07855,17.0844394 -3.43363,1.775596 -5.67231,1.790184 -8.79874,0.05734 z m 7.4429,-5.663029 c 2.004,-2.214393 1.39196,-4.3120538 -1.8559,-6.3607524 -1.29206,-0.8150093 -2.15995,-0.5622793 -3.84062,1.1183972 -2.0743,2.0743012 -2.09624,2.2859768 -0.49085,4.7361192 2.03249,3.101964 3.71378,3.239524 6.18737,0.506236 z"
         id="path3868"
         inkscape:connector-curvature="0" />
      <path
         style="fill:#8ac43e"
         d="M 22,62.450278 C 15.466218,60.402418 8.1879052,54.373842 4.6610438,48.088541 2.1407547,43.597075 1.5510247,41.276815 1.1922165,34.440627 0.81491266,27.25205 1.0743046,25.51745 3.2310695,20.806455 6.606631,13.433258 11.124128,8.5756218 17.511889,5.4503816 27.885781,0.37490943 40.679376,1.3631347 49.760374,7.9413755 l 4.132772,2.9937645 -3.446573,5.723602 c -1.895615,3.14798 -3.449538,6.650074 -3.453162,7.78243 -0.0058,1.79777 -0.245569,1.696347 -1.891297,-0.799875 C 39.175116,14.651292 26.990064,13.841075 19.66426,21.949864 13.58208,28.68211 13.544583,37.276385 19.5683,43.943919 26.346547,51.44663 36.636412,51.465491 43.392247,43.98759 45.584529,41.560996 47,40.599511 47,41.536957 c 0,1.855299 3.647638,9.296337 5.706699,11.641439 1.330718,1.51558 1.061022,1.977321 -2.780158,4.759857 C 42.050959,63.643296 31.331915,65.375146 22,62.450278 z M 69.204958,62.105772 C 47.138098,54.483761 41.190293,26.062296 58.351657,10.243502 75.276155,-5.356955 103.06548,2.7334109 109.03825,25 l 1.20708,4.5 1.17182,-4.549439 C 113.70414,16.071638 120.883,7.7056201 129.5,3.8773587 c 6.79956,-3.02082738 18.06343,-3.08403126 24.67567,-0.1384602 6.20258,2.7630789 12.83075,9.0071095 15.86373,14.9443395 2.32899,4.559134 2.47709,5.873103 2.76889,24.566762 L 173.11657,63 166.05829,63 159,63 158.97804,46.75 C 158.95966,33.150988 158.6566,29.8407 157.12034,26.45863 152.23924,15.712922 139.90022,12.758654 131.32966,20.283701 125.6172,25.299314 125,27.852495 125,46.467881 L 125,63 l -6.8554,0 -6.85539,0 -0.6375,-6.75 c -0.35062,-3.7125 -0.67079,-9.225 -0.7115,-12.25 l -0.074,-5.5 -1.31487,4.206854 C 103.5437,58.728623 85.369429,67.689068 69.204958,62.105772 z M 84.316196,48.551188 c 5.094803,-1.817035 7.583188,-4.177124 9.925628,-9.413882 3.799805,-8.494844 0.0458,-17.353147 -9.061173,-21.381594 -7.139894,-3.158315 -15.081499,-0.738784 -19.651973,5.987273 -5.276397,7.764916 -2.376777,19.79963 5.660257,23.492587 6.859368,3.151829 7.733146,3.239399 13.127261,1.315616 z M 176,44.678139 c 0,-21.440258 0.85018,-25.070715 7.63941,-32.621977 C 190.16954,4.7930896 197.25421,1.6315789 207,1.6315789 c 6.38926,0 8.69414,0.4733319 13.31596,2.7345749 7.08978,3.4687082 13.99556,11.0449472 16.24751,17.8249302 l 1.70443,5.131563 1.74539,-4.598058 c 2.53028,-6.665766 5.53561,-11.143143 9.5189,-14.1813424 12.247,-9.34124332 28.90133,-9.07544069 39.93566,0.6373722 6.09371,5.3638932 9.35125,12.0053812 10.55841,21.5265242 1.12743,8.892209 3.52692,13.111415 9.30266,16.357566 4.81999,2.708983 12.34406,2.292513 16.69474,-0.924081 C 328.41765,44.370676 330.31132,44 336.95951,44 342.00302,44 345,44.398762 345,45.069825 c 0,2.179292 -5.95383,9.626176 -9.86097,12.333825 -5.8527,4.055925 -10.72263,5.504097 -18.63903,5.542688 -7.96951,0.03885 -14.62315,-2.481534 -20.74815,-7.859352 C 292.0427,51.830303 287,43.024261 287,39.803656 287,38.138323 285.73461,38 270.5,38 c -9.41922,0 -16.5,0.396212 -16.5,0.923275 0,1.861991 5.49893,7.387245 8.67119,8.712699 6.9667,2.910872 14.3755,1.024482 19.55191,-4.978206 2.2674,-2.629332 2.7276,-2.836609 2.75,-1.238625 0.0148,1.055529 1.40606,4.362877 3.09169,7.349662 2.84511,5.041252 2.94884,5.558649 1.44713,7.218021 -0.88971,0.983126 -4.35611,3.016443 -7.70309,4.518481 -5.42449,2.434365 -6.96645,2.682594 -14.19713,2.285494 -12.77223,-0.701433 -21.14107,-6.294263 -26.49188,-17.704319 L 238.5,39.5 238.21826,51.25 237.93653,63 230.96826,63 224,63 223.994,47.25 c -0.003,-8.6625 -0.46198,-17.393194 -1.01982,-19.401543 -0.58758,-2.115476 -2.66345,-5.141507 -4.93475,-7.193493 -8.77287,-7.92576 -21.17341,-5.174686 -26.16019,5.803666 -1.53626,3.38207 -1.83932,6.692358 -1.8577,20.29137 L 190,63 l -7,0 -7,0 0,-18.321861 z M 282,22.068094 c 0,-2.130648 -6.50265,-5.445233 -11.4948,-5.85922 -5.57263,-0.462126 -9.56205,0.986493 -12.91255,4.688747 L 255.69002,23 268.84501,23 C 276.30752,23 282,22.596742 282,22.068094 z m 84.23333,39.264067 C 363.88666,60.501692 359.55846,57.621269 356.61512,54.93122 349.54261,48.467341 346.88363,42.279907 346.22354,30.75 l -0.50095,-8.75 -8.23885,0 c -6.25765,0 -8.55137,-0.376561 -9.53846,-1.565937 C 325.76339,17.805046 321.31171,16 317.00982,16 c -4.73066,0 -11.46046,3.10499 -13.01157,6.003266 -1.4752,2.756432 -2.65946,2.497915 -3.45071,-0.753266 -0.3681,-1.5125 -1.80003,-4.47794 -3.18207,-6.589867 -2.29526,-3.507448 -2.37741,-3.989454 -0.94903,-5.5677994 2.45521,-2.7129807 10.04422,-6.127599 15.55458,-6.9986697 13.25864,-2.09590803 26.71407,4.6756972 32.47092,16.3413671 1.45206,2.942452 1.51343,2.655243 1.53529,-7.185031 L 346,1 l 7.5,0 7.5,0 0,3.5 0,3.5 13,0 13,0 0,7 0,7 -13,0 -13,0 0,6.532119 c 0,7.963996 1.58077,12.0146 6.30885,16.165903 4.90257,4.304512 10.89074,5.191972 16.94941,2.511938 2.466,-1.090831 4.79327,-2.484321 5.17171,-3.096645 C 390.23106,42.817121 407,42.545344 407,43.828555 c 0,1.755993 -6.39568,10.371462 -9.40077,12.663556 -6.15013,4.690935 -11.58584,6.467866 -19.59923,6.40698 -4.125,-0.03134 -9.42,-0.73646 -11.76667,-1.56693 z M 426.2222,59.953169 C 419.48408,56.586092 414.96842,52.046811 411.73379,45.388957 L 409.60147,41 399.80073,41 390,41 l 0,-9.5 0,-9.5 9.90454,0 9.90454,0 3.0162,-5.344416 C 418.5368,6.5353401 427.95535,1.0258157 439.57186,1.0097689 c 3.88952,-0.00537 9.15206,0.6990268 11.69453,1.5653326 C 459.50655,5.3828056 468.4241,15.081997 470.505,23.5 l 0.74159,3 1.38207,-4 c 3.61451,-10.461141 14.76744,-19.404056 26.15199,-20.9698316 14.02351,-1.9287256 28.76634,7.327263 33.38821,20.9621096 1.33282,3.931903 1.82937,4.578058 2.31133,3.007722 C 539.0077,10.74852 550.80076,1.6002122 565.11553,1.7350495 574.88757,1.8270968 575,1.9335382 575,11.093068 l 0,7.958292 -2.95034,-1.52568 c -6.81786,-3.525653 -16.41629,-0.950984 -20.72446,5.559101 -5.56204,8.404806 -3.27948,18.513549 5.31806,23.552046 3.67901,2.156041 5.32327,2.52476 9.47845,2.1255 9.06393,-0.870929 14.23453,-6.765547 15.33528,-17.482619 C 583.49424,11.444682 599.3224,-1.1628768 618,2.1722073 625.005,3.423024 630.73421,6.755092 635.826,12.539666 640.7486,18.132033 643,24.396143 643,32.5 c 0,9.228479 -2.41332,15.061527 -8.9259,21.574104 -6.50578,6.50579 -12.36134,8.932798 -21.50224,8.912241 C 601.98046,62.962527 602,62.97935 602,53.883369 602,49.547516 602.15586,46 602.34636,46 c 0.1905,0 1.80634,0.72833 3.59074,1.61851 4.5842,2.286898 12.01232,1.420185 16.38002,-1.91122 13.29902,-10.14366 5.11137,-31.059882 -11.53236,-29.46063 -8.9076,0.855907 -13.50521,6.035684 -14.84777,16.72782 -2.31924,18.47055 -12.65586,28.888685 -29.5849,29.818222 -7.1134,0.390582 -8.83325,0.133629 -13.54564,-2.023772 -7.54883,-3.455969 -12.21203,-7.891782 -15.75962,-14.991126 L 534,39.680555 534,51.340278 534,63 l -7.43816,0 -7.43816,0 -0.31184,-18.25 C 518.5169,27.488827 518.37353,26.322681 516.16579,23.227361 513.34045,19.266156 507.27843,16 502.75173,16 c -5.24812,0 -11.91539,3.913483 -14.48116,8.5 -2.07363,3.706776 -2.23888,5.264527 -2.25412,21.25 L 486,63 l -7.5,0 -7.5,0 0,-11.196344 0,-11.196345 -2.57839,5.174155 C 465.20406,52.238238 457.45683,59.315603 451.31606,61.407973 448.74628,62.283588 443.42076,63 439.48158,63 c -5.98161,0 -8.16714,-0.502206 -13.25938,-3.046831 z m 20.31917,-12.832833 c 11.09296,-5.03883 13.85389,-17.96037 5.60097,-26.213288 -7.21162,-7.211622 -16.83656,-7.412832 -23.75283,-0.496555 -8.26073,8.260729 -5.70534,21.816568 5.03189,26.693176 5.1286,2.329293 8.02065,2.332967 13.11997,0.01667 z m -50.4313,-28.515843 c -2.65841,-1.473446 -5.02045,-5.152515 -5.07463,-7.904153 -0.11067,-5.6205503 6.1037,-10.48760135 11.79482,-9.2376214 8.04216,1.7663551 9.44251,13.2763874 2.07855,17.0844394 -3.43363,1.775596 -5.67231,1.790184 -8.79874,0.05734 z m 7.4429,-5.663029 c 2.004,-2.214393 1.39196,-4.3120538 -1.8559,-6.3607524 -1.29206,-0.8150093 -2.15995,-0.5622793 -3.84062,1.1183972 -2.0743,2.0743012 -2.09624,2.2859768 -0.49085,4.7361192 2.03249,3.101964 3.71378,3.239524 6.18737,0.506236 z"
         id="path3866"
         inkscape:connector-curvature="0" />
      <path
         style="fill:#4ab957"
         d="m 110.46419,53.363776 c -1.07137,-14.290101 -0.17087,-26.977787 2.31332,-32.593716 2.93305,-6.630645 10.27162,-14.1095173 16.50873,-16.8243515 7.05878,-3.07248541 18.24783,-3.16545694 24.88943,-0.20681 6.20258,2.7630789 12.83075,9.0071095 15.86373,14.9443395 2.32899,4.559134 2.47709,5.873103 2.76889,24.566762 L 173.11657,63 166.05829,63 159,63 158.97804,46.75 C 158.95966,33.150988 158.6566,29.8407 157.12034,26.45863 152.23924,15.712922 139.90022,12.758654 131.32966,20.283701 125.6172,25.299314 125,27.852495 125,46.467881 L 125,63 l -6.90668,0 -6.90667,0 -0.72246,-9.636224 z M 176,44.678139 c 0,-21.440258 0.85018,-25.070715 7.63941,-32.621977 C 190.16954,4.7930896 197.25421,1.6315789 207,1.6315789 c 9.75752,0 16.82912,3.1600157 23.38213,10.4485461 7.17631,7.981779 7.99748,12.141325 7.73289,39.169875 L 238,63 l -7,0 -7,0 -0.006,-15.75 c -0.003,-8.6625 -0.46198,-17.393194 -1.01982,-19.401543 -0.58758,-2.115476 -2.66345,-5.141507 -4.93475,-7.193493 -8.77287,-7.92576 -21.17341,-5.174686 -26.16019,5.803666 -1.53626,3.38207 -1.83932,6.692358 -1.8577,20.29137 L 190,63 l -7,0 -7,0 0,-18.321861 z M 366.23333,61.332161 C 360.16616,59.185038 351.75765,51.146273 348.9095,44.770111 346.75661,39.950438 346.5238,37.854695 346.18568,20.25 L 345.81595,1 353.40798,1 361,1 l 0,3.5 0,3.5 13,0 13,0 0,7 0,7 -13,0 -13,0 0,6.532119 c 0,7.963996 1.58077,12.0146 6.30885,16.165903 4.90257,4.304512 10.89074,5.191972 16.94941,2.511938 2.466,-1.090831 4.79327,-2.484321 5.17171,-3.096645 C 390.23106,42.817121 407,42.545344 407,43.828555 c 0,1.755993 -6.39568,10.371462 -9.40077,12.663556 -6.15013,4.690935 -11.58584,6.467866 -19.59923,6.40698 -4.125,-0.03134 -9.42,-0.73646 -11.76667,-1.56693 z M 426.2222,59.953169 C 419.48408,56.586092 414.96842,52.046811 411.73379,45.388957 L 409.60147,41 399.80073,41 390,41 l 0,-9.5 0,-9.5 9.90454,0 9.90454,0 3.0162,-5.344416 C 418.5368,6.5353401 427.95535,1.0258157 439.57186,1.0097689 c 3.88952,-0.00537 9.15206,0.6990268 11.69453,1.5653326 C 459.50655,5.3828056 468.4241,15.081997 470.505,23.5 l 0.74159,3 1.38207,-4 C 476.24317,12.038859 487.3961,3.095944 498.78065,1.5301684 509.17087,0.10114738 521.49142,5.4643486 527.92955,14.21884 533.01949,21.140079 534,26.222006 534,45.681501 L 534,63 l -7.43816,0 -7.43816,0 -0.31184,-18.25 C 518.5169,27.488827 518.37353,26.322681 516.16579,23.227361 513.34045,19.266156 507.27843,16 502.75173,16 c -5.24812,0 -11.91539,3.913483 -14.48116,8.5 -2.07363,3.706776 -2.23888,5.264527 -2.25412,21.25 L 486,63 l -7.5,0 -7.5,0 0,-11.196344 0,-11.196345 -2.57839,5.174155 C 465.20406,52.238238 457.45683,59.315603 451.31606,61.407973 448.74628,62.283588 443.42076,63 439.48158,63 c -5.98161,0 -8.16714,-0.502206 -13.25938,-3.046831 z m 20.31917,-12.832833 c 11.09296,-5.03883 13.85389,-17.96037 5.60097,-26.213288 -7.21162,-7.211622 -16.83656,-7.412832 -23.75283,-0.496555 -8.26073,8.260729 -5.70534,21.816568 5.03189,26.693176 5.1286,2.329293 8.02065,2.332967 13.11997,0.01667 z"
         id="path3864"
         inkscape:connector-curvature="0" />
      <path
         style="fill:#38b448"
         d="m 110.65171,56.25 c -2.33348,-24.707614 0.64428,-37.835356 10.61576,-46.8005737 14.88201,-13.3802065 38.39221,-9.12878757 48.28613,8.7317217 2.94261,5.312003 2.94682,5.344285 3.27146,25.068852 l 0.32506,19.75 -6.99408,0 -6.99407,0 -0.33099,-17.75 C 158.52439,28.807786 158.33145,27.228935 156.21229,23.820952 149.56059,13.123816 132.89461,13.782723 127.25,24.966006 125.18304,29.061141 125,30.789486 125,46.21189 L 125,63 l -6.8554,0 -6.85539,0 -0.6375,-6.75 z m 65.52323,-13 C 176.49958,23.525433 176.50379,23.493151 179.4464,18.181148 186.42646,5.5807365 200.74089,-0.97533736 213.90753,2.3977989 224.42367,5.091908 231.01177,10.578151 235.6454,20.5 c 2.18456,4.677742 2.33569,6.208468 2.34483,23.75 L 238,63 l -7,0 -7,0 0,-16.842716 c 0,-15.697156 -0.15814,-17.142479 -2.32502,-21.25 -6.18659,-11.727226 -23.15896,-11.696751 -29.37224,0.05274 C 190.16259,29.007096 190,30.503822 190,46.157284 L 190,63 l -7.07506,0 -7.07506,0 0.32506,-19.75 z m 188.10413,16.757811 c -3.54642,-1.787117 -7.92082,-5.066034 -10.1749,-7.626803 C 347.71624,45.123929 346.77187,41.182314 346.28611,19.75 L 345.86115,1 353.43058,1 361,1 l 0,3.5 0,3.5 13,0 13,0 0,7 0,7 -13,0 -13,0 0,7.039838 c 0,8.394206 2.30467,13.751764 7.21891,16.78144 6.7243,4.145593 12.78261,4.02415 19.2821,-0.386523 3.30562,-2.243256 4.54942,-2.481423 11.61229,-2.223556 l 7.91013,0.288801 -1.76171,3.2609 c -5.34966,9.90211 -14.77245,15.55339 -26.76172,16.050237 -7.32135,0.303404 -8.52773,0.06559 -14.22093,-2.803326 z m 64.00317,0.941864 C 421.92658,58.433856 415.19429,52.098531 412.11337,45.734182 L 409.82159,41 399.91079,41 390,41 l 0,-9.5 0,-9.5 10.25,-0.0258 10.25,-0.0258 1.93702,-4.193264 c 2.8066,-6.075758 9.64367,-12.2643467 16.342,-14.7920058 C 433.35243,1.2373285 436.00443,0.89097763 442,1.236473 c 12.48986,0.7197289 20.77448,6.3451178 26.36466,17.902007 l 3.34393,6.913093 1.82278,-4.772874 c 2.45711,-6.433853 10.2767,-14.5154502 16.76684,-17.3286246 15.07378,-6.533794 33.48022,0.5871225 40.35976,15.6140206 2.14423,4.683612 2.44259,7.086803 3.01889,24.316579 L 534.31637,63 526.65818,63 519,63 519,45.147883 C 519,28.28078 518.87585,27.113357 516.75,23.989831 512.79401,18.177271 509.60287,16.5 502.5,16.5 c -7.10287,0 -10.29401,1.677271 -14.25,7.489831 C 486.12415,27.113357 486,28.28078 486,45.147883 L 486,63 l -7.5,0 -7.5,0 -0.0181,-11.25 -0.0181,-11.25 -3.02713,5.492508 c -3.89008,7.058266 -6.86174,10.104602 -13.24703,13.57991 -7.04038,3.831854 -18.67362,4.438577 -26.40737,1.377257 z M 448.03998,46.697261 C 453.09337,44.024963 457,37.685939 457,32.158441 c 0,-7.985063 -6.39994,-15.537696 -14.24512,-16.810792 -11.47645,-1.862372 -22.12403,9.801471 -18.86806,20.668931 3.30352,11.026166 14.30234,15.889917 24.15316,10.680681 z"
         id="path3862"
         inkscape:connector-curvature="0" />
   </g>
</svg>